<svg xmlns="http://www.w3.org/2000/svg" viewBox="0 0 743.67 306.79"><defs><style>.cls-1{fill:#0a1d3b;}.cls-2{fill:#0684ba;}</style></defs><g id="Layer_2" data-name="Layer 2"><g id="Layer_1-2" data-name="Layer 1"><path class="cls-1" d="M132.4,172.71a10.48,10.48,0,0,0-4.37-9q-4.36-3.16-15.74-6.4a78.3,78.3,0,0,1-18.1-7.19q-12.87-7.6-12.87-19.86,0-10.71,9.28-17.66t24.08-7A42.89,42.89,0,0,1,132.2,109a28.43,28.43,0,0,1,12.09,9.72,23.89,23.89,0,0,1,4.4,14H132.4q0-6.94-4.62-10.87c-3.09-2.62-7.49-3.93-13.23-3.93q-8,0-12.44,3.23a10.51,10.51,0,0,0-4.43,9q0,4.88,4.78,8.14t15.78,6.33a74.89,74.89,0,0,1,17.65,7,27.34,27.34,0,0,1,9.76,9,22.45,22.45,0,0,1,3.1,11.91,20.69,20.69,0,0,1-9,17.64q-9,6.56-24.47,6.55a48.53,48.53,0,0,1-18.79-3.56,31.32,31.32,0,0,1-13.31-9.84,23.56,23.56,0,0,1-4.76-14.62H94.77q0,7.55,5.3,11.69t15.2,4.15q8.52,0,12.83-3.26A10.32,10.32,0,0,0,132.4,172.71Z"/><path class="cls-1" d="M197.7,161.44H179.46v34.11H163.11v-88.7h33.1q16.29,0,25.15,6.89t8.86,19.94q0,8.9-4.56,14.91A28.85,28.85,0,0,1,213,157.82l21.14,36.94v.79H216.57ZM179.46,149h16.81q8.28,0,12.93-3.93t4.66-10.75q0-7.14-4.3-11t-12.83-4H179.46Z"/><path class="cls-2" d="M414.08,170.33q-1.43,14.19-11.12,22.14t-25.8,7.95a38.41,38.41,0,0,1-19.81-5,33.65,33.65,0,0,1-13.23-14.29,49,49,0,0,1-4.84-21.5v-8.29A49.44,49.44,0,0,1,344,129.21a34.21,34.21,0,0,1,13.55-14.74,39.47,39.47,0,0,1,20.4-5.18q15.57,0,25.08,7.95t11.06,22.51H397.79q-1.17-9.57-5.92-13.8t-13.93-4.24q-10.67,0-16.39,7.35t-5.85,21.56v7.86q0,14.4,5.46,22t16,7.56q9.63,0,14.48-4.09t6.15-13.58Z"/><path class="cls-2" d="M424.23,165.64a37,37,0,0,1,4.07-17.46,28.84,28.84,0,0,1,11.44-11.94,33.82,33.82,0,0,1,16.94-4.17q14.16,0,23,8.59t9.53,22.79l.07,3.47a37.32,37.32,0,0,1-4,17.42,28.3,28.3,0,0,1-11.38,11.88,34,34,0,0,1-17.1,4.2q-14.81,0-23.69-9.29t-8.89-24.76Zm15.71,1.28q0,10.17,4.46,15.93t12.41,5.76q7.95,0,12.38-5.85t4.43-17.12q0-10-4.56-15.84a15.93,15.93,0,0,0-24.6-.09Q439.95,155.47,439.94,166.92Z"/><path d="M499.61,165.76q0-15.22,7.5-24.46t20.11-9.23q11.12,0,18,7.31V105.63H560.9v93.58H546.68l-.78-6.83q-7,8-18.81,8a24.39,24.39,0,0,1-19.88-9.32Q499.61,181.78,499.61,165.76ZM515.32,167q0,10.05,4.11,15.69t11.67,5.63q9.63,0,14.09-8.1V152.11q-4.34-7.92-14-7.92-7.63,0-11.77,5.7T515.32,167Z"/><path d="M577.32,116.17a7.61,7.61,0,0,1,2.3-5.66c1.53-1.51,3.71-2.26,6.56-2.26a9.06,9.06,0,0,1,6.59,2.26,7.52,7.52,0,0,1,2.33,5.66,7.39,7.39,0,0,1-2.33,5.58,9.17,9.17,0,0,1-6.59,2.22,9,9,0,0,1-6.56-2.22A7.47,7.47,0,0,1,577.32,116.17Zm16.68,83H578.29V133.29H594Z"/><path d="M625.68,133.29l.45,7.61q7.77-8.82,20.37-8.83,21.86,0,22.24,23.58v43.56H653V156.5q0-6.27-2.88-9.29t-9.4-3q-9.51,0-14.16,8.11v46.91H610.88V133.29Z"/><path d="M682,165.76q0-15.34,7.66-24.52T710,132.07q12,0,18.81,7.86l.71-6.64h14.16V197.2q0,13-8.57,20.46T712,225.16a39.2,39.2,0,0,1-15-3,26.58,26.58,0,0,1-11.15-7.89l7.43-8.89a23,23,0,0,0,17.85,8.1q7.81,0,12.34-4T728,197.74V193.3q-6.8,7.13-18.1,7.12a25.1,25.1,0,0,1-20.08-9.2Q682,182,682,165.76ZM697.64,167q0,9.93,4.3,15.63a14.11,14.11,0,0,0,11.93,5.69q9.5,0,14.09-7.67v-29q-4.46-7.5-14-7.5-7.77,0-12.06,5.79T697.64,167Z"/><path class="cls-1" d="M186.24,282a128.26,128.26,0,0,0,89.86-36.58,153.4,153.4,0,1,1,0-184.09A128.63,128.63,0,1,0,186.24,282Z"/><path class="cls-2" d="M157.6,251.09A97.39,97.39,0,0,1,89.36,223.3a116.51,116.51,0,1,0,0-139.81,97.69,97.69,0,1,1,68.24,167.6Z"/></g></g></svg>